<svg id="Layer_1" data-name="Layer 1" xmlns="http://www.w3.org/2000/svg" viewBox="0 0 617.63 625.9"><defs><style>.cls-1{fill:#020202;}</style></defs><path class="cls-1" d="M308,126c-103.16,0-187.08,83.92-187.08,187.08a186,186,0,0,0,36.41,110.77.39.39,0,0,0,.08.1A186.92,186.92,0,0,0,308,500.15C411.11,500.15,495,416.22,495,313.07S411.11,126,308,126ZM158.27,423.51c-.26-.36-.53-.73-.81-1.1a185.12,185.12,0,0,1-35.59-109.34C121.87,210.46,205.34,127,308,127S494,210.46,494,313.07,410.55,499.15,308,499.15A185.94,185.94,0,0,1,158.27,423.51ZM308,126c-103.16,0-187.08,83.92-187.08,187.08a186,186,0,0,0,36.41,110.77.39.39,0,0,0,.08.1A186.92,186.92,0,0,0,308,500.15C411.11,500.15,495,416.22,495,313.07S411.11,126,308,126ZM158.27,423.51c-.26-.36-.53-.73-.81-1.1a185.12,185.12,0,0,1-35.59-109.34C121.87,210.46,205.34,127,308,127S494,210.46,494,313.07,410.55,499.15,308,499.15A185.94,185.94,0,0,1,158.27,423.51ZM308,126c-103.16,0-187.08,83.92-187.08,187.08a186,186,0,0,0,36.41,110.77.39.39,0,0,0,.08.1A186.92,186.92,0,0,0,308,500.15C411.11,500.15,495,416.22,495,313.07S411.11,126,308,126ZM158.27,423.51c-.26-.36-.53-.73-.81-1.1a185.12,185.12,0,0,1-35.59-109.34C121.87,210.46,205.34,127,308,127S494,210.46,494,313.07,410.55,499.15,308,499.15A185.94,185.94,0,0,1,158.27,423.51ZM308,126c-103.16,0-187.08,83.92-187.08,187.08a186,186,0,0,0,36.41,110.77.39.39,0,0,0,.08.1A186.92,186.92,0,0,0,308,500.15C411.11,500.15,495,416.22,495,313.07S411.11,126,308,126ZM158.27,423.51c-.26-.36-.53-.73-.81-1.1a185.12,185.12,0,0,1-35.59-109.34C121.87,210.46,205.34,127,308,127S494,210.46,494,313.07,410.55,499.15,308,499.15A185.94,185.94,0,0,1,158.27,423.51ZM308,126c-103.16,0-187.08,83.92-187.08,187.08a186,186,0,0,0,36.41,110.77.39.39,0,0,0,.08.1A186.92,186.92,0,0,0,308,500.15C411.11,500.15,495,416.22,495,313.07S411.11,126,308,126ZM158.27,423.51c-.26-.36-.53-.73-.81-1.1a185.12,185.12,0,0,1-35.59-109.34C121.87,210.46,205.34,127,308,127S494,210.46,494,313.07,410.55,499.15,308,499.15A185.94,185.94,0,0,1,158.27,423.51ZM308,126c-103.16,0-187.08,83.92-187.08,187.08a186,186,0,0,0,36.41,110.77.39.39,0,0,0,.08.1A186.92,186.92,0,0,0,308,500.15C411.11,500.15,495,416.22,495,313.07S411.11,126,308,126ZM158.27,423.51c-.26-.36-.53-.73-.81-1.1a185.12,185.12,0,0,1-35.59-109.34C121.87,210.46,205.34,127,308,127S494,210.46,494,313.07,410.55,499.15,308,499.15A185.94,185.94,0,0,1,158.27,423.51ZM472.43,149.22A231.72,231.72,0,1,0,540.3,313.07,230.2,230.2,0,0,0,472.43,149.22ZM308.58,543.79c-127.22,0-230.72-103.5-230.72-230.72S181.36,82.35,308.58,82.35,539.3,185.85,539.3,313.07,435.8,543.79,308.58,543.79ZM308,126c-103.16,0-187.08,83.92-187.08,187.08a186,186,0,0,0,36.41,110.77.39.39,0,0,0,.08.1A186.92,186.92,0,0,0,308,500.15C411.11,500.15,495,416.22,495,313.07S411.11,126,308,126ZM158.27,423.51c-.26-.36-.53-.73-.81-1.1a185.12,185.12,0,0,1-35.59-109.34C121.87,210.46,205.34,127,308,127S494,210.46,494,313.07,410.55,499.15,308,499.15A185.94,185.94,0,0,1,158.27,423.51ZM308,126c-103.16,0-187.08,83.92-187.08,187.08a186,186,0,0,0,36.41,110.77.39.39,0,0,0,.08.1A186.92,186.92,0,0,0,308,500.15C411.11,500.15,495,416.22,495,313.07S411.11,126,308,126ZM158.27,423.51c-.26-.36-.53-.73-.81-1.1a185.12,185.12,0,0,1-35.59-109.34C121.87,210.46,205.34,127,308,127S494,210.46,494,313.07,410.55,499.15,308,499.15A185.94,185.94,0,0,1,158.27,423.51ZM308,126c-103.16,0-187.08,83.92-187.08,187.08a186,186,0,0,0,36.41,110.77.39.39,0,0,0,.08.1A186.92,186.92,0,0,0,308,500.15C411.11,500.15,495,416.22,495,313.07S411.11,126,308,126ZM158.27,423.51c-.26-.36-.53-.73-.81-1.1a185.12,185.12,0,0,1-35.59-109.34C121.87,210.46,205.34,127,308,127S494,210.46,494,313.07,410.55,499.15,308,499.15A185.94,185.94,0,0,1,158.27,423.51ZM308,126c-103.16,0-187.08,83.92-187.08,187.08a186,186,0,0,0,36.41,110.77.39.39,0,0,0,.08.1A186.92,186.92,0,0,0,308,500.15C411.11,500.15,495,416.22,495,313.07S411.11,126,308,126ZM158.27,423.51c-.26-.36-.53-.73-.81-1.1a185.12,185.12,0,0,1-35.59-109.34C121.87,210.46,205.34,127,308,127S494,210.46,494,313.07,410.55,499.15,308,499.15A185.94,185.94,0,0,1,158.27,423.51ZM308,126c-103.16,0-187.08,83.92-187.08,187.08a186,186,0,0,0,36.41,110.77.39.39,0,0,0,.08.1A186.92,186.92,0,0,0,308,500.15C411.11,500.15,495,416.22,495,313.07S411.11,126,308,126ZM158.27,423.51c-.26-.36-.53-.73-.81-1.1a185.12,185.12,0,0,1-35.59-109.34C121.87,210.46,205.34,127,308,127S494,210.46,494,313.07,410.55,499.15,308,499.15A185.94,185.94,0,0,1,158.27,423.51Z"/><path class="cls-1" d="M112,336.54l-9.22.95-.93-9.05-2.43.25.94,9.05-6.77.7-1-9.85-2.43.25,1,9.85h0l.25,2.43L112.28,339Z"/><path class="cls-1" d="M110.71,313.76s0,0,0,0a9.13,9.13,0,0,0-2.4-4l-1.71,1.76a6.49,6.49,0,0,1-3.21,11l-.23-15.24a8.18,8.18,0,0,0-1.22-.06,8.95,8.95,0,1,0,8.82,11.07A8.48,8.48,0,0,0,111,316,8.64,8.64,0,0,0,110.71,313.76Zm-15.13,2.46a6.51,6.51,0,0,1,5.18-6.46l.19,12.76A6.5,6.5,0,0,1,95.58,316.22Z"/><path class="cls-1" d="M112.18,287.41l-20.87-1.84L91.1,288l6.37.56a8.47,8.47,0,0,0-3.57,6.24,8.95,8.95,0,0,0,17.83,1.57,8.63,8.63,0,0,0-.12-2.39,8.4,8.4,0,0,0-2.3-4.37l2.65.23Zm-2.9,8.74a6.49,6.49,0,1,1-5.89-7A6.49,6.49,0,0,1,109.28,296.15Z"/><path class="cls-1" d="M114.71,273.25a8.85,8.85,0,0,0-1.49-4.19l-2,1.37a6.5,6.5,0,0,1-5.39,10.14l2.89-15a9.32,9.32,0,0,0-1.18-.32,9,9,0,1,0,6.27,12.88,8.66,8.66,0,0,0,.82-2.39A9,9,0,0,0,114.71,273.25Zm-11.31,6.86a6.5,6.5,0,0,1,2.41-12.53Z"/><path class="cls-1" d="M117.37,261.91l-8.49-2.33a6.49,6.49,0,0,1-4.3-7.91l-2.37-.65a8.45,8.45,0,0,0,1.15,7l-2.54-.69-.64,2.35,16.58,4.56h0l.65-2.35Z"/><path class="cls-1" d="M125.29,238l-16.2-5.83-.83,2.3,2.51.9a8.43,8.43,0,0,0-5,5.12,8.95,8.95,0,0,0,16.84,6.06,8.6,8.6,0,0,0,.5-2.55,8.24,8.24,0,0,0-1.12-4.6l2.51.9Zm-5,7.72a6.49,6.49,0,1,1-3.91-8.31A6.49,6.49,0,0,1,120.26,245.76Z"/><path class="cls-1" d="M128.32,231.32l-13.44-6,1.36-3-2.23-1-1.36,3-3.41-1.52-1,2.22,3.4,1.53-.89,2,2.23,1,.89-2,13.44,6,0,0,1-2.23Z"/><path class="cls-1" d="M114.91,215.36a1.54,1.54,0,1,0-.15,2.17A1.55,1.55,0,0,0,114.91,215.36ZM131.85,224l-14.47-7.17L116.3,219l14.46,7.16,0,0,1.08-2.19Z"/><path class="cls-1" d="M134.57,201.51a8.95,8.95,0,1,0,1.72,14.16,8.53,8.53,0,0,0,1.52-1.93,8.74,8.74,0,0,0,.92-2.26A8.93,8.93,0,0,0,134.57,201.51Zm1.13,11a6.5,6.5,0,1,1-2.36-8.89A6.5,6.5,0,0,1,135.7,212.51Z"/><path class="cls-1" d="M144.29,186.57l7.57,5.48,1.43-2-7.57-5.48a8.21,8.21,0,0,0-11.47,1.84,7.39,7.39,0,0,0-1.24,6.24l-1.88-1.36-1.43,2,14,10.09,1.43-2-7.56-5.48a5.78,5.78,0,1,1,6.77-9.36Z"/><path class="cls-1" d="M168.24,158.62a10.77,10.77,0,1,0-1.66,16.62h0a10.58,10.58,0,0,0,1.69-1.39,10.45,10.45,0,0,0,1.37-1.69s0,0,0,0A10.75,10.75,0,0,0,168.24,158.62Zm-1.68,13.5a8.32,8.32,0,1,1,0-11.77A8.32,8.32,0,0,1,166.56,172.12Z"/><path class="cls-1" d="M173.25,154.13,177,151l-1.58-1.87-3.75,3.19-1.78-2.11a2.49,2.49,0,0,1,.28-3.5l1.87-1.57-1.58-1.87-1.86,1.58a4.93,4.93,0,0,0-.58,6.94l1.79,2.1-.9.77,1.58,1.86.9-.76,7,8.26,1.86-1.58Z"/><path class="cls-1" d="M183.3,133.62l-2,1.41,12.06,17.12.45-.32,1.55-1.08Z"/><path class="cls-1" d="M207.82,131.81a8.2,8.2,0,0,0-11.28-2.75,7.37,7.37,0,0,0-3.56,5.27l-1.2-2-2.09,1.27,8.95,14.7,2.09-1.27-4.86-8a5.78,5.78,0,1,1,9.87-6l4.85,8,2.09-1.27Z"/><path class="cls-1" d="M218.46,136.85l-6.84-13,2.94-1.54-1.13-2.16-2.94,1.54-1.73-3.31-2.17,1.13,1.74,3.31-1.94,1,1.13,2.16,1.94-1,6.83,13,0,0,2.17-1.13Z"/><path class="cls-1" d="M229.79,129.25a6.49,6.49,0,0,1-7.94-2.33l14-6a8.31,8.31,0,0,0-.41-1.15,8.94,8.94,0,1,0-7.18,12.42,8.91,8.91,0,0,0,4.69-2,8.87,8.87,0,0,0,2.59-3.56l-2.28-.9A6.5,6.5,0,0,1,229.79,129.25Zm-8.9-4.57a6.49,6.49,0,0,1,11.71-5Z"/><path class="cls-1" d="M241,117.68a6.5,6.5,0,0,1,4.13-8l-.79-2.32a8.44,8.44,0,0,0-5.19,4.9l-.84-2.49-2.32.79,5.56,16.29h0l2.31-.79v0Z"/><path class="cls-1" d="M265.69,110.12a8.22,8.22,0,0,0-10-5.94,7.41,7.41,0,0,0-4.94,4l-.58-2.24-2.36.61,4.26,16.68,2.36-.61-2.31-9.05a5.78,5.78,0,0,1,11.2-2.85l2.3,9,2.37-.61Z"/><path class="cls-1" d="M285.64,99l-2.41.35.39,2.64a8.44,8.44,0,0,0-6.9-2,8.94,8.94,0,0,0,.34,17.74,8.73,8.73,0,0,0,2.28,0,8.26,8.26,0,0,0,2.19-.62,8.38,8.38,0,0,0,3.82-3.3l.39,2.64,2.42-.36ZM279,115.22a6.49,6.49,0,1,1,5.47-7.37A6.48,6.48,0,0,1,279,115.22Z"/><path class="cls-1" d="M297.77,100.61l-.17-2.44-3.3.23L294,94.68l-2.44.17.26,3.72-2.18.15.17,2.44L292,101l1,14.73,2.44-.17-1-14.73Z"/><path class="cls-1" d="M302.38,94.2a1.52,1.52,0,0,0-2,.89,1.54,1.54,0,1,0,2-.89Zm.78,4.85-2.44.07.5,16.16,2.43-.08Z"/><path class="cls-1" d="M316.15,97.73a9,9,0,0,0-.65,17.89,9.17,9.17,0,0,0,2.3-.21,9,9,0,0,0-1.65-17.68Zm-.56,15.45a6.51,6.51,0,1,1,6.74-6.27A6.51,6.51,0,0,1,315.59,113.18Z"/><path class="cls-1" d="M337.91,99.63a7.38,7.38,0,0,0-6.08,1.84l.31-2.3-2.41-.33-2.35,17.06,2.42.33,1.27-9.25a5.78,5.78,0,1,1,11.45,1.57l-1.28,9.26,2.42.33,1.27-9.25A8.21,8.21,0,0,0,337.91,99.63Z"/><path class="cls-1" d="M365.25,105.49l-.63,2.59a8.46,8.46,0,0,0-5.63-4.47,8.94,8.94,0,0,0-6.53,16.47,8.45,8.45,0,0,0,2.3.92,8.58,8.58,0,0,0,7.05-1.38l-.63,2.6,2.37.57,4.07-16.72Zm-2.06,8.35a6.49,6.49,0,1,1-4.78-7.84A6.5,6.5,0,0,1,363.19,113.84Z"/><path class="cls-1" d="M373.62,104.12l-6.33,19.93v0l2.33.73v0L376,104.86Z"/><path class="cls-1" d="M392,110.76l-6.26,15.08a2.48,2.48,0,0,1-3.24,1.35l-1.22-.5-.81,2-.12.29,1.22.5a5,5,0,0,0,1.81.37,4.94,4.94,0,0,0,4.62-3l6.26-15.08Z"/><path class="cls-1" d="M405,120.41A9,9,0,0,0,394.92,135h0a9.1,9.1,0,0,0,4.46,2.24A9,9,0,0,0,405,120.41Zm1.82,10.91a6.51,6.51,0,1,1-2.92-8.73A6.51,6.51,0,0,1,406.84,131.32Z"/><path class="cls-1" d="M428.39,134.3l-5,7.9a5.77,5.77,0,1,1-9.77-6.16l5-7.9-2.07-1.3-5,7.9a8.21,8.21,0,0,0,.81,9.84,7.94,7.94,0,0,0,1.76,1.49,8.19,8.19,0,0,0,11.33-2.56l5-7.9Z"/><path class="cls-1" d="M434.73,142.05l1.57-2.1-2-1.46-10.29,13.8,2,1.46,5.29-7.1a6.49,6.49,0,0,1,8.93-1.13l1.47-2A8.43,8.43,0,0,0,434.73,142.05Z"/><path class="cls-1" d="M450.8,151.19a7.42,7.42,0,0,0-6.09-1.81l1.53-1.74L444.4,146,433.05,159l1.84,1.6,6.16-7a5.78,5.78,0,0,1,8.68,7.62l-6.16,7,1.84,1.61,6.15-7A8.21,8.21,0,0,0,450.8,151.19Z"/><path class="cls-1" d="M470.39,171.15l-2,1.81a8.42,8.42,0,0,0-2.23-6.83,8.95,8.95,0,0,0-14.41,10.39,8.71,8.71,0,0,0,1.28,1.78,8.6,8.6,0,0,0,1.72,1.44,8.43,8.43,0,0,0,4.93,1.3l-2,1.82,1.66,1.79,12.63-11.71ZM464.05,177a6.5,6.5,0,1,1,.35-9.18A6.5,6.5,0,0,1,464.05,177Z"/><path class="cls-1" d="M478.12,174.64,461.8,187.78l1.53,1.9,16.32-13.14Z"/><path class="cls-1" d="M478.69,183.1l-12.91,9.73,1.47,1.95,12.91-9.73Zm5-1.48a1.54,1.54,0,1,0-1.11,1.88A1.56,1.56,0,0,0,483.68,181.62Z"/><path class="cls-1" d="M487.33,192.77c-2.09-3.11-5.38-4.18-7.83-2.53a5,5,0,0,0-1.83,5.31,11,11,0,0,0,1.16,2.82,7.61,7.61,0,0,1,.94,2.29,2.64,2.64,0,0,1-.83,2.61c-1.3.87-3.13.1-4.45-1.87-1.07-1.59-1.24-3.54-.39-4.52l-1.85-1.59a5.12,5.12,0,0,0-1.12,3.58,7.48,7.48,0,0,0,.32,1.8,8.09,8.09,0,0,0,1,2.09,8.34,8.34,0,0,0,1.65,1.86,6.31,6.31,0,0,0,2.06,1.18,4.61,4.61,0,0,0,4.11-.51,5,5,0,0,0,1.89-5,10,10,0,0,0-1.19-3.05,8.35,8.35,0,0,1-.93-2.18,2.67,2.67,0,0,1,.8-2.79,2.22,2.22,0,0,1,2.05-.18,5.16,5.16,0,0,1,2.4,2c1.06,1.58,1.24,3.52.4,4.51l1.86,1.57C489.13,198.36,489,195.3,487.33,192.77Z"/><path class="cls-1" d="M497.76,203.06,496.52,201l-3.22,1.89L492.19,201l-2.11,1.23,1.11,1.89-12.74,7.46h0l1.23,2.1h0l12.73-7.45L494.1,209l2.11-1.23L494.53,205Z"/><path class="cls-1" d="M484.86,216.53l-3.21.55-3.69.63.89,1.65,4-.13,3.43-.11Z"/><path class="cls-1" d="M484.35,221.76l1.12,2.42,4.42-.16,3.83,8.24-3,3.27,1.13,2.42,15.51-17Zm8.19,2.16,9.06-.33-6.1,6.71Z"/><path class="cls-1" d="M516,254.34a7.83,7.83,0,0,0-5.48-5.21,7.85,7.85,0,0,0,1.46-7.41,6.76,6.76,0,0,0-4.07-4.38l2.1-.67-.74-2.32-16.4,5.22.74,2.33,9.25-3a5.4,5.4,0,0,1,3.28,10.3l-9.23,2.94h0l.75,2.32,9.25-3a5.4,5.4,0,0,1,3.28,10.3l-9.25,2.95.74,2.32,9.25-2.95A7.83,7.83,0,0,0,516,254.34Z"/><path class="cls-1" d="M520.74,275.37a8.95,8.95,0,0,0-17.72.81,8.85,8.85,0,0,0,.8,4.55,9,9,0,0,0,3,3.55l1.4-2a6.49,6.49,0,0,1,1.39-11.39l2.68,15a8.29,8.29,0,0,0,1.21-.13A9,9,0,0,0,520.74,275.37ZM514.25,283,512,270.45A6.5,6.5,0,0,1,514.25,283Z"/><path class="cls-1" d="M520,291l2.61-.26-.24-2.43L505.19,290l.24,2.43,8.82-.87a6.49,6.49,0,0,1,6.85,5.85l2.44-.24A8.46,8.46,0,0,0,520,291Z"/><path class="cls-1" d="M522.29,300.33l-16.14.87.13,2.43,16.14-.86Zm4-.41a1.54,1.54,0,1,0,.94,2A1.53,1.53,0,0,0,526.31,299.92Z"/><path class="cls-1" d="M515.15,306.63a8.93,8.93,0,0,0-9,8.89,8.36,8.36,0,0,0,.25,2.14,8.82,8.82,0,0,0,2.33,4.2l1.74-1.73a6.49,6.49,0,1,1,9.18.06l1.73,1.75a8.95,8.95,0,0,0-6.23-15.31Z"/><path class="cls-1" d="M523,333.7a8.94,8.94,0,0,0-17.28-4,8.82,8.82,0,0,0-.44,4.57,8.49,8.49,0,0,0,2.27,4.45l-2.66-.27-.24,2.43,17.13,1.7.24-2.43-2.65-.26A8.44,8.44,0,0,0,523,333.7Zm-2.44-.25a6.49,6.49,0,1,1-5.82-7.1A6.48,6.48,0,0,1,520.6,333.45Z"/><path class="cls-1" d="M131.66,410.49l-3.86-7-1.61.89,1.24,2.24-7.59,4.2-1.8-3.25a8.66,8.66,0,0,0,.8-1.68,6,6,0,0,0,4.12-.58,6,6,0,0,0,2.28-8,5.29,5.29,0,0,0-3.53-2.69,6.17,6.17,0,0,0-4.49.59l1.2,2.26a3.71,3.71,0,0,1,2.61-.39,3,3,0,0,1,2,1.56,3.25,3.25,0,0,1,.34,2.48,3.1,3.1,0,0,1-1.57,1.95,3.36,3.36,0,0,1-2.71.26,6.63,6.63,0,0,0-.74-2.33,7.68,7.68,0,0,0-1-1.38L115,401a4.51,4.51,0,0,1,1.09,1.31,3.65,3.65,0,0,1,.34,2.85,3.58,3.58,0,0,1-1.79,2.25,3.86,3.86,0,0,1-5.15-1.5,3.7,3.7,0,0,1,1.48-5.06,4.47,4.47,0,0,1,1.64-.54l-1.35-2.36a7,7,0,0,0-1.57.63,6.18,6.18,0,0,0-3,3.75,5.87,5.87,0,0,0,.45,4.74,6.54,6.54,0,0,0,8.8,2.53c.19-.1.38-.2.56-.31l1.46,2.63L112.24,415l1.33,2.42,15.2-8.4,1.39,2.52.11-.06,1.5-.83Z"/><path class="cls-1" d="M124.24,419.94a4,4,0,0,1,2.92-.7,3.61,3.61,0,0,1,2.46,1.64l4.89,7.17,1.89-1.29-4.89-7.17a6.23,6.23,0,0,0-11.27,2.33,5.85,5.85,0,0,0,.91,4.63,6.17,6.17,0,0,0,4,2.65,5.87,5.87,0,0,0,4.71-.91,6.34,6.34,0,0,0,2.24-2.74l-1.86-2.74a3.58,3.58,0,0,1-1.63,3.43,3.9,3.9,0,0,1-2.95.68,4,4,0,0,1-3.15-4.54A3.88,3.88,0,0,1,124.24,419.94Zm7.51-9.51-.09.06-1.43,1,0,.05,9.54,14,.12.18,1.5-1,0,0Z"/><path class="cls-1" d="M153.09,439l-11.66-14.31-.23-.29-1.39,1.13,0,0L148.29,436l-3,2.42a7.51,7.51,0,0,0-1.73-4.72,7.3,7.3,0,0,0-5.18-2.8,7.59,7.59,0,0,0-5.65,1.76,7.6,7.6,0,0,0-1.11,10.71l2.18-1.72a4.83,4.83,0,0,1-1.1-3.6,4.57,4.57,0,0,1,1.73-3.31,4.9,4.9,0,0,1,3.68-1.07,4.77,4.77,0,0,1,4.46,4.7,3.62,3.62,0,0,1-.94,3L134.83,447l1.65,2,13.45-11,1.9,2.33,0,0,1.39-1.14Z"/><path class="cls-1" d="M165.25,451.47,153.11,439l0,0-1.3,1.26.07.07,6.54,6.73a4.62,4.62,0,0,1-1.39,4.65,4.51,4.51,0,0,1-3.26,1.38,4.39,4.39,0,0,1-3.22-1.44,4,4,0,0,1-1-2.17l-.18-2.46-2.62-.07L148,461.34l2.79,2.88-.9-9.81q4.89,3.07,9.08-1a8.13,8.13,0,0,0,1.25-1.75,5.63,5.63,0,0,0,.78-1.9l3.1,3.18.11-.11,1.21-1.17Z"/><path class="cls-1" d="M170.71,456.26l-.09-.08-3-2.73-1.1-1-1.19-1.09-.1.11-1.14,1.25.12.11,1.09,1L153.56,466.7l2,1.86,11.76-12.88,2.07,1.9h0l.21.2h0l1.23-1.35Z"/><path class="cls-1" d="M175.2,447.86a4.43,4.43,0,0,0-3.67-1.16,5.53,5.53,0,0,0-3.51,1.92,5.78,5.78,0,0,0-1.3,2.4,5.24,5.24,0,0,0-.18,1.43v0l1.1,1,1.39,1.23.58-.66a2.39,2.39,0,0,1-.49-.57,2.46,2.46,0,0,1-.36-1.38,3.16,3.16,0,0,1,.82-2.07,3.09,3.09,0,0,1,2-1.06,2.51,2.51,0,0,1,2.09.63,2.47,2.47,0,0,1,.72,2.56l1.71,1.51Q177.75,450.1,175.2,447.86Z"/><path class="cls-1" d="M185.58,463.48a9.84,9.84,0,0,0-3.08-4.59,9.71,9.71,0,0,0-5-2.28,9.6,9.6,0,0,0-4.64.44c-.27.09-.55.2-.82.32l-1.12-.94-.19-.17-.09-.08-1.19,1.4h0l.22.19,1.1.94L159.52,472l2.1,1.78,11.25-13.22,1.77,1.51.64.54,1.18-1.39h0l-2.16-1.84.79-.18a7.26,7.26,0,0,1,8.51,7.36,1.31,1.31,0,0,1,0,.28.57.57,0,0,1,0,.13,2.11,2.11,0,0,1,0,.25v0l2.1,1.79a5.66,5.66,0,0,0,.13-.56.83.83,0,0,0,0-.15A9.52,9.52,0,0,0,185.58,463.48Z"/><path class="cls-1" d="M183.6,466.78l-7.14-5.61-.71-.56L174.64,462l0,0,1.51,1.19-5.39,6.86q-3.66,4.59,1,8.3a4.1,4.1,0,0,0,2.84,1.11l3.54-4.49,1.07-9.33,2.91,2.28.49.38.93-1.19.14-.17.06-.08Zm-7.86,10.44a3.17,3.17,0,0,1-2.27-.81,3.58,3.58,0,0,1-1.32-1.89,2.31,2.31,0,0,1,.38-2.18l4.42-5.61Z"/><path class="cls-1" d="M187.61,469.67l-1.81-1.24L183.71,467l-.12-.08-.48-.33-1,1.39-.08.12,8.61,5.91-1.45,2.11a7.41,7.41,0,0,0-1.42-1.26,7.09,7.09,0,0,0-5.56-1.15,7.6,7.6,0,0,0-6,8.75,7.12,7.12,0,0,0,3.12,4.79A7.29,7.29,0,0,0,185,488.5a7.15,7.15,0,0,0,4.81-3.15l-2.41-1.65A4.66,4.66,0,0,1,179,482a4.78,4.78,0,0,1,3.78-5.43,4.63,4.63,0,0,1,3.51.81,4.2,4.2,0,0,1,1.82,4.88l.22.11,4.61-6.73,4,2.71.21-.31.65-.94.12-.17.06-.09Z"/><path class="cls-1" d="M180.35,488.86,175,490.1l.68,2.06,3.86-.87.54,2.32,1.32-.31Z"/><path class="cls-1" d="M197.92,476.88l-.12-.06-.09.16-.56,1-.24.44,8.59,4.73c.53.3.75,1.07.64,2.32a6.54,6.54,0,0,1-.68,2.55,4.28,4.28,0,0,1-2.65,2.17,4.42,4.42,0,0,1-3.41-.44,3.58,3.58,0,0,1-1.74-1.9,2.77,2.77,0,0,1,.25-2.44,4.21,4.21,0,0,1,.56-.78l-2.85-.8c-.14.2-.26.4-.38.61a11.21,11.21,0,0,0-1.06,3.76,8.56,8.56,0,0,0,1.15,5.47,9.92,9.92,0,0,0,4,4,8.9,8.9,0,0,0,5.73,1.05l-1.69,3.09,2.52,1.39,8.4-15.24,2.87,1.58.42-.76L218,488Zm9.27,18c-.55,1-1.66,1.46-3.32,1.36a8.66,8.66,0,0,1-3.78-1A6.34,6.34,0,0,1,197,491a7.76,7.76,0,0,0,1.5,1.1,6.25,6.25,0,0,0,5.27.51,7.4,7.4,0,0,0,4.13-3.55,8.18,8.18,0,0,0,1-4l2.87,1.59Z"/><path class="cls-1" d="M227.18,491.93l-.5,1.32-.15.4,1.61.61-3.08,8.16q-2.09,5.5,3.44,7.59a5.1,5.1,0,0,0,3,.4l-1.23,3.25,2.69,1,6.15-16.28,2.64,1,.32.12v0l.62-1.63,0-.06ZM233,506.44a2.18,2.18,0,0,1-1.46,1.42,3.41,3.41,0,0,1-2.19-.15,3.23,3.23,0,0,1-1.73-1.42,2.33,2.33,0,0,1-.14-2.11l3.36-8.9,5.58,2.1Z"/><path class="cls-1" d="M242.69,497.86l-.48-.14-.47,1.65v0l0,.09,1.94.55,12.07,3.41-.09.32-1.64,5.8-2.23,1a7,7,0,0,0-1.67-3.6,6.78,6.78,0,0,0-3.32-2.12,6.5,6.5,0,0,0-4,.11l-1.26,4.46q1.65-2.89,4.56-2.07a4.05,4.05,0,0,1,2.32,1.64,4.24,4.24,0,0,1,.76,2.74l-10.91,4.84,3.81,1.07,11.06-4.86-2.09,7.4,2.51.7,4.63-16.41.08-.29,3,.85.29.08.44-1.54.06-.23Z"/><path class="cls-1" d="M290.78,508.11,262,503.55l-.48-.08-.25,1.54,0,.23v.05l.66.1,12.41,2-.09.6-1.34,8.45a4,4,0,0,1-1.72,2.82,4.83,4.83,0,0,1-6.32-1.08,4.31,4.31,0,0,1-.77-3.38,4.39,4.39,0,0,1,1.82-3,4.31,4.31,0,0,1,3.38-.82,4.16,4.16,0,0,1,3.08,2.14l.54-3.43a7,7,0,0,0-3.32-1.5,6.51,6.51,0,0,0-5.31,1.45,7.43,7.43,0,0,0-2.85,4.83,6.85,6.85,0,0,0,1.3,5.33,7,7,0,0,0,4.69,2.87,6.86,6.86,0,0,0,4.63-.89l-.43,2.77,2.72.43,1.44-9.09a3.38,3.38,0,0,1,1.89-2.46,4.57,4.57,0,0,1,3.1-.64,4.4,4.4,0,0,1,2.91,1.81,4.21,4.21,0,0,1,.86,3.28,4.51,4.51,0,0,1-1.87,3,4.4,4.4,0,0,1-3.4.89,4.26,4.26,0,0,1-2.77-1.7l-.5,3.18a7,7,0,0,0,3,1.27,6.54,6.54,0,0,0,5.32-1.46,7.63,7.63,0,0,0,2.85-4.86,6.79,6.79,0,0,0-1.3-5.31,7,7,0,0,0-4.7-2.85,6.86,6.86,0,0,0-4.63.89l.39-2.49.1-.63L290.87,510l.08-.51.21-1.3Z"/><path class="cls-1" d="M290.81,507.62l0,.49-.1,1.34.27,0,1.37.1-.05.7L291.13,527l2.75.19L295,510.48l.05-.72,2.84.19.28,0,.11-1.7v-.14Z"/><path class="cls-1" d="M315.6,508.44l-17.3-.17h-.37l0,1.68v.16l9.48.09a5,5,0,0,1,.95.74,5,5,0,0,1,.06,6.81,4.41,4.41,0,0,1-3.29,1.27,4,4,0,0,1-2.27-.79l-1.88-1.6-1.89,1.81,11.15,9.19,4,0-7.6-6.26q5.63-1.3,5.68-7.15a8.67,8.67,0,0,0-.36-2.13,9.28,9.28,0,0,0-.42-1.21,3.23,3.23,0,0,0-.38-.68l4.44,0Z"/><path class="cls-1" d="M346.57,506.94l3-.42-.21-1.46-.05-.36h0L325.75,508l.26,1.82,11.41-1.61.09.61L338.93,519a3.58,3.58,0,0,1-.66,2.78,4,4,0,0,1-5.31.74,3.86,3.86,0,0,1-.68-5.29,3.71,3.71,0,0,1,2.52-1.45,3.55,3.55,0,0,1,3,1l-.48-3.4a6.69,6.69,0,0,0-3-.3,6.09,6.09,0,0,0-4.26,2.59,6.51,6.51,0,0,0-1.23,4.88,6.1,6.1,0,0,0,2.53,4.21,6.54,6.54,0,0,0,9.09-1.27,6.19,6.19,0,0,0,1.25-4.8l-.53-3.75,3.64-.51,1.43,10.14,2.77-.39-2.36-16.85Zm-5.74,5.73-.6-4.25-.08-.58,3.64-.51.07.47.61,4.36Z"/><path class="cls-1" d="M369,516.08a7.51,7.51,0,0,0-9.23-5.56,6.72,6.72,0,0,0-2.89,1.49,1.23,1.23,0,0,1-.94-1c-.21-.85.25-1.42,1.36-1.69l7.66-1.88-1.08-4.36,0-.22,3.42-.84,0-.16-.4-1.62-.29.07-17.27,4.23,0,.14.09.35.32,1.29,11.42-2.79.08.32.47,1.93-5.75,1.41a3.24,3.24,0,0,0-2.21,1.73,4.13,4.13,0,0,0-.31,2.92,3.57,3.57,0,0,0,1.63,2.28,7.65,7.65,0,0,0-.92,5.83,7.78,7.78,0,0,0,1.89,3.44,6.56,6.56,0,0,0,3.24,2.05l1.7-2.47a4.29,4.29,0,0,1-2.7-1.17,5.19,5.19,0,0,1-1.56-2.61,4.78,4.78,0,0,1,.65-3.8,4.9,4.9,0,0,1,3.13-2.31,4.68,4.68,0,0,1,3.72.61,4.79,4.79,0,0,1,2.23,3,5.32,5.32,0,0,1-.43,3.77l3.07-.75A7.49,7.49,0,0,0,369,516.08Z"/><path class="cls-1" d="M371.23,500.81l-.05-.16,2.79-.86.19-.06-.47-1.49-.08-.27-7.18,2.22.05.15L367,502l.2-.06,1.37-.42.06.2,5.1,16.46,2.63-.82Z"/><path class="cls-1" d="M389.9,502.49l.5,1.27,3.69-1.44,2.92,7.44,2.49-1-6.35-16.2,2.91-1.14-.28-.72-.28-.71-.11-.29h0l-21.67,8.5-.28.11.56,1.44,0,.07.08.2,8.43-3.3a5.21,5.21,0,0,1,4.32,3.59,4.71,4.71,0,0,1,.09,3.57,4.2,4.2,0,0,1-2.54,2.42,4.15,4.15,0,0,1-2.44.12c-.1,0-.9-.3-2.41-.84l-.94,2.43,12.05,4.21,3.88-1.52-7.81-2.69A6.88,6.88,0,0,0,389.9,502.49Zm-4.08-7,4.84-1.9,2.58,6.6-3.39,1.32a8.07,8.07,0,0,0-.53-2.11A6.58,6.58,0,0,0,385.82,495.46Z"/><path class="cls-1" d="M409.46,484.34l2.77-1.45-.5-.94-.32-.62-16.06,8.4h0l.14.28.36.68.31.59,2.55-1.33a3.92,3.92,0,0,0,.42,2.36,4.9,4.9,0,0,0,2.3,2.14,5.42,5.42,0,0,0,.22,4.82,6.6,6.6,0,0,0,3.81,3.3,6,6,0,0,0,4.93-.36,9.37,9.37,0,0,0,3.75-3.14l1,1.95,2.38-1.24Zm2.15,13.54a5.71,5.71,0,0,1-2,1.91,4,4,0,0,1-3.09.32,3.72,3.72,0,0,1-2.39-1.91,3.56,3.56,0,0,1-.17-2.92,3.82,3.82,0,0,1,1.88-2.27,6.54,6.54,0,0,1,2.1-.47l-1.24-2.37a2.8,2.8,0,0,0-1.72.45,12,12,0,0,0-2.14,1.48,2.35,2.35,0,0,1-1.11-1.07,3.1,3.1,0,0,1-.34-1.62,1.37,1.37,0,0,1,.73-1.23l5-2.6,5.13,9.81C412.56,496,412.35,496.86,411.61,497.88Z"/><path class="cls-1" d="M423.21,495.32l-1.94.49a4.77,4.77,0,0,1,.42,4.81l1.66,1A6.74,6.74,0,0,0,423.21,495.32Z"/><path class="cls-1" d="M442.43,462.27l2.3-1.75-.67-.87-.43-.56,0,0-6.53,5,1.12,1.46,2-1.54,5.25,6.91-3,2.25a7.87,7.87,0,0,0-1.78-.56,6,6,0,0,0-1.16-4,5.62,5.62,0,0,0-3.9-2.22,6.18,6.18,0,0,0-2,.05,5.77,5.77,0,0,0-4.11,3.26h0a5.6,5.6,0,0,0-.4,1.67,6.23,6.23,0,0,0,1.23,4.36l2.06-1.51a3.77,3.77,0,0,1-.76-2.53,3,3,0,0,1,1.26-2.17,3.23,3.23,0,0,1,2.41-.7,3.1,3.1,0,0,1,2.15,1.28,3.34,3.34,0,0,1,.65,2.64,6.53,6.53,0,0,0-2.2,1.07,7.05,7.05,0,0,0-1.21,1.18l1.67,2.14a4.54,4.54,0,0,1,1.15-1.27,3.65,3.65,0,0,1,2.77-.75,3.71,3.71,0,0,1,3.18,4.25,3.65,3.65,0,0,1-1.44,2.51,3.68,3.68,0,0,1-5.22-.74,4.46,4.46,0,0,1-.77-1.54l-2.15,1.68a7.57,7.57,0,0,0,.86,1.46,6.18,6.18,0,0,0,4.14,2.41,5.88,5.88,0,0,0,4.62-1.13,6.56,6.56,0,0,0,1.24-9.08l-.39-.51,2.39-1.81,3.95,5.19,2.19-1.67Z"/><path class="cls-1" d="M469.83,460.67l2-1.93-12-12.57,2.17-2.07-.58-.61-.68-.72-.06.05-4.23,4-.4.38-12.48,11.86-.05.05.48.51.79.83,8.35-7.94,7.5,7.88a3.58,3.58,0,0,1,1.08,2.64,4,4,0,0,1-3.89,3.7,3.87,3.87,0,0,1-3.63-3.91,3.71,3.71,0,0,1,1.21-2.65,3.52,3.52,0,0,1,3-1l-2.37-2.49a6.76,6.76,0,0,0-2.64,1.52,6.13,6.13,0,0,0-1.95,4.59,6.48,6.48,0,0,0,1.83,4.68,6.13,6.13,0,0,0,4.51,2,6.29,6.29,0,0,0,4.6-1.79,6.36,6.36,0,0,0,2.06-4.54,6.22,6.22,0,0,0-1.79-4.63l-2.61-2.74,2.67-2.54Zm-11.27-6.5-3.36-3.54,2.66-2.53,3.37,3.53Z"/><path class="cls-1" d="M456.87,444.71c-.24.07-.48.13-.74.18a12.73,12.73,0,0,1-3.47.21,23.23,23.23,0,0,0-3.82,0,8.26,8.26,0,0,0-4,1.91l-.08,2.61a8.78,8.78,0,0,1,4.33-2.35,15.24,15.24,0,0,1,3.52.17,9.77,9.77,0,0,0,1.19.08,8.46,8.46,0,0,0,2.35-.28l.44-.13a1.18,1.18,0,0,1,0-.25A2.91,2.91,0,0,1,456.87,444.71Z"/><path class="cls-1" d="M464.91,440.5l1.91-2.11.21-.23L465.77,437l-.1-.09L463.76,439a7.82,7.82,0,0,1-.17-3,7,7,0,0,1,1.81-3.73,7.32,7.32,0,0,1,2.44-1.81,7.17,7.17,0,0,1,3.58-.56l.5.06,1.85-2.05c-.21-.06-.41-.12-.62-.16a9.67,9.67,0,0,0-4.9.09,10.07,10.07,0,0,0-7.1,7.89,9.15,9.15,0,0,0,0,3.3,9.73,9.73,0,0,0,.61,2.18l-1.23,1.36.22.2.74.67.4.36,1.18-1.3,12.88,11.64,1.85-2.05Z"/><path class="cls-1" d="M481.21,438.62q2.44-5.24-2.12-8.89a7.89,7.89,0,0,0-1.89-1,6,6,0,0,0-2-.54L478,424.7l-.45-.36-.72-.58-.27-.21-3.41,4.25L471.42,430,465.77,437l-.27.33,1.32,1.05.12.1,5.93-7.39a4.58,4.58,0,0,1,4.78.81,4.53,4.53,0,0,1,1.78,3.06,4.42,4.42,0,0,1-1,3.37,4,4,0,0,1-2,1.3l-2.42.49.25,2.6,14.12-3.09,2.51-3.13Z"/><path class="cls-1" d="M503.74,410.6a7.6,7.6,0,0,0-3.34-4.53,6.79,6.79,0,0,0-5.39-.9,7,7,0,0,0-4.47,3.19,6.82,6.82,0,0,0-1,4.61l-2.68-1.68,7.49-11.88-.44-.28-1.12-.7-.2.31-15.75,25-.06.09.78.49.78.49,7.05-11.21,7.75,4.89a4,4,0,0,1,1.92,2.7,4.83,4.83,0,0,1-3.49,5.38,4.34,4.34,0,0,1-3.41-.63,4.41,4.41,0,0,1-2-2.84,4.36,4.36,0,0,1,.58-3.44,4.17,4.17,0,0,1,3.18-2L487,415.85a7.2,7.2,0,0,0-2.69,2.46,6.57,6.57,0,0,0-.76,5.46,7.5,7.5,0,0,0,3.32,4.52,6.86,6.86,0,0,0,5.41.9,7,7,0,0,0,4.48-3.18,6.85,6.85,0,0,0,1-4.6l2.36,1.49,1.48-2.34-7.79-4.9a3.41,3.41,0,0,1-1.51-2.7,4.53,4.53,0,0,1,.63-3.1,4.34,4.34,0,0,1,2.81-2,4.18,4.18,0,0,1,3.36.51,4.49,4.49,0,0,1,2,2.89,4.35,4.35,0,0,1-.52,3.47,4.25,4.25,0,0,1-2.65,1.88l2.72,1.71a6.94,6.94,0,0,0,2.37-2.29A6.53,6.53,0,0,0,503.74,410.6Z"/><path class="cls-1" d="M495.79,395.44l1.43-2.77-1.64-.84-3.43,6.69.43.22,1.2.62.12-.23.63-1.23,15.52,8,1.26-2.46Z"/><path class="cls-1" d="M468.25,427.89a10.07,10.07,0,0,0-7.1,7.89,9.15,9.15,0,0,0,0,3.3c.83-1,1.64-2,2.45-3a7,7,0,0,1,1.81-3.73,7.32,7.32,0,0,1,2.44-1.81q1.08-1.45,2.13-2.94A9.3,9.3,0,0,0,468.25,427.89Zm37.9-112.37a8.36,8.36,0,0,0,.25,2.14c0-1.46.05-2.93.05-4.4A8.86,8.86,0,0,0,506.15,315.52Zm-.91,16.41a8.66,8.66,0,0,0,.08,2.34c.17-1.52.31-3,.44-4.57A8.64,8.64,0,0,0,505.24,331.93ZM503,276.18a8.85,8.85,0,0,0,.8,4.55C503.57,279.21,503.3,277.69,503,276.18Zm-8.62,96.91a2.44,2.44,0,0,0,1.47,4c1-3,2-6.05,2.86-9.12Zm2.51-120.9h0l.75,2.32C497.41,253.74,497.16,253,496.91,252.19Zm-15.26-35.11-3.69.63.89,1.65,4-.13C482.44,218.51,482.05,217.79,481.65,217.08Zm-3.2-5.55h0l1.23,2.1h0C479.28,212.93,478.87,212.23,478.45,211.53Zm-7-10.86a8.09,8.09,0,0,0,1,2.09,8.34,8.34,0,0,0,1.65,1.86C473.24,203.29,472.36,202,471.45,200.67ZM452.66,445.1a23.23,23.23,0,0,0-3.82,0,8.26,8.26,0,0,0-4,1.91l-.08,2.61a8.78,8.78,0,0,1,4.33-2.35,15.24,15.24,0,0,1,3.52.17,9.77,9.77,0,0,0,1.19.08c.8-.87,1.59-1.74,2.37-2.62A12.73,12.73,0,0,1,452.66,445.1Zm-.87-268.58a8.71,8.71,0,0,0,1.28,1.78,8.6,8.6,0,0,0,1.72,1.44C453.8,178.66,452.8,177.58,451.79,176.52ZM308,126c-103.16,0-187.08,83.92-187.08,187.08a186,186,0,0,0,36.41,110.77l0,.15.1-.05A186.92,186.92,0,0,0,308,500.15C411.11,500.15,495,416.22,495,313.07S411.11,126,308,126Zm.26,373.59A186.29,186.29,0,0,1,158,423.65l-.57-.76A185.8,185.8,0,0,1,121.63,313c0-103,83.53-186.58,186.58-186.58S494.79,210,494.79,313,411.26,499.58,308.21,499.58Zm123.1-32.13a5.52,5.52,0,0,0-1.76,2.2q2.08-1.59,4.11-3.26A5.55,5.55,0,0,0,431.31,467.45ZM412.38,144.58a7.94,7.94,0,0,0,1.76,1.49,8.24,8.24,0,0,0,2.1,1C415,146.19,413.68,145.37,412.38,144.58Zm-1,336.75-16.06,8.4h0l-21.67,8.5-.08-.27-7.18,2.22.05.15-17.27,4.23,0,.14L325.75,508l.26,1.82,11.41-1.61.09.61c.91-.12,1.82-.26,2.72-.41,1.21-.19,2.42-.4,3.63-.62.92-.16,1.84-.34,2.76-.52q7.36-1.42,14.53-3.4c.9-.25,1.8-.5,2.69-.77q2.4-.69,4.76-1.44l2.63-.86c.93-.31,1.85-.62,2.77-.95a195.84,195.84,0,0,0,21.78-9.13l.08,0q8.16-4,15.87-8.75ZM394.93,135a9.1,9.1,0,0,0,4.46,2.24C397.91,136.45,396.43,135.71,394.93,135Zm-14.45-6.32-.12.29,1.22.5a5,5,0,0,0,1.81.37Zm-13.19-4.61v0l2.33.73v0Zm-14.83-4a8.45,8.45,0,0,0,2.3.92,8.31,8.31,0,0,0,2.51.23C355.68,120.82,354.07,120.44,352.46,120.08Zm-39.23-4.84a8.91,8.91,0,0,0,2.27.38,9.17,9.17,0,0,0,2.3-.21C316.28,115.33,314.76,115.28,313.23,115.24Zm2.37,393.2-17.3-.17v-.14l-7.5-.51,0,.49L262,503.55l.06-.23-19.34-5.46,0-.06-15.53-5.87-.5,1.32q6.1,2.78,12.42,5.15l2.64,1,.33.12,1.58.55q5.91,2.06,12,3.73c.83.24,1.67.46,2.51.68l3.07.79.65.15q6.09,1.49,12.32,2.57l2.72.46c5.06.81,10.18,1.44,15.37,1.85.91.08,1.83.15,2.75.21q6.6.45,13.32.46h.23c1,0,2,0,3,0a3.23,3.23,0,0,0-.38-.68l4.44,0ZM277.06,117.69a8.73,8.73,0,0,0,2.28,0,8.26,8.26,0,0,0,2.19-.62Q279.28,117.33,277.06,117.69ZM243.8,126c-.77.26-1.53.53-2.3.81h0l2.31-.79Zm-15.54,6.13a8.91,8.91,0,0,0,4.69-2Q230.58,131.14,228.26,132.17Zm-9.8,4.68c-.73.37-1.45.75-2.17,1.13l0,0,2.17-1.13Zm-20.54,340,.06-.09-10.37-7.12q4.94,3.81,10.1,7.31l.09.07a199.61,199.61,0,0,0,19.75,11.76L218,488Zm-12.34-13.4a9.84,9.84,0,0,0-3.08-4.59,9.71,9.71,0,0,0-5-2.28,9.6,9.6,0,0,0-4.64.44c.75.7,1.5,1.4,2.26,2.09a7.26,7.26,0,0,1,8.51,7.36c.74.6,1.48,1.2,2.23,1.78A9.52,9.52,0,0,0,185.58,463.48ZM175.2,447.86a4.43,4.43,0,0,0-3.67-1.16,5.53,5.53,0,0,0-3.51,1.92,5.78,5.78,0,0,0-1.3,2.4l2.4,2.43a2.46,2.46,0,0,1-.36-1.38,3.16,3.16,0,0,1,.82-2.07,3.09,3.09,0,0,1,2-1.06,2.51,2.51,0,0,1,2.09.63,2.47,2.47,0,0,1,.72,2.56l1.71,1.51Q177.75,450.1,175.2,447.86Zm-8.6-272.63a10.58,10.58,0,0,0,1.69-1.39,10.45,10.45,0,0,0,1.37-1.69Q168.12,173.67,166.6,175.23Zm-30.31,40.44a8.53,8.53,0,0,0,1.52-1.93,8.74,8.74,0,0,0,.92-2.26C137.9,212.87,137.08,214.26,136.29,215.67ZM131.85,224c-.38.72-.74,1.45-1.09,2.18l0,0,1.08-2.19Zm-3.53,7.34c-.34.74-.67,1.48-1,2.23l0,0,1-2.23Zm-7,17.53a8.91,8.91,0,0,0,1.21-2.26,8.6,8.6,0,0,0,.5-2.55C122.48,245.63,121.9,247.24,121.36,248.85ZM121,371.55l-2.3-2.59q.9,3.1,1.92,6.15A2.42,2.42,0,0,0,121,371.55Zm-3.64-109.64c-.21.79-.41,1.58-.61,2.37h0l.65-2.35Zm-2.66,11.34c-.34,1.63-.65,3.27-.94,4.91a8.66,8.66,0,0,0,.82-2.39A9,9,0,0,0,114.71,273.25ZM111.61,294c-.15,1.55-.28,3.11-.39,4.67a9,9,0,0,0,.51-2.28A8.63,8.63,0,0,0,111.61,294Zm-.9,19.78c0,1.5,0,3,.05,4.49A8.48,8.48,0,0,0,111,316,8.64,8.64,0,0,0,110.71,313.76Z"/><path class="cls-1" d="M393.72,487.62a2,2,0,0,1-1.08,1.11,1.82,1.82,0,0,1-2.74-1,2,2,0,0,1-.1-1.56,1.93,1.93,0,0,1,1.07-1.12,2,2,0,0,1,2.76,1A2,2,0,0,1,393.72,487.62Z"/><path class="cls-1" d="M120.63,375.11a2.33,2.33,0,0,1-.9.42l-10.5,2.4-10.12,2.31a2.43,2.43,0,0,1-2.83-3.2l3.53-9.78,3.65-10.11a2.43,2.43,0,0,1,4.11-.79l6.71,7.6,4.43,5,2.3,2.59A2.42,2.42,0,0,1,120.63,375.11Z"/><path class="cls-1" d="M516.92,379.78l-10.67-1.37L496,377.07h-.08a2.44,2.44,0,0,1-1.47-4l4.33-5.15,2.37-2.81L508,356.9a2.44,2.44,0,0,1,4.13.69l3.66,9.45,3.69,9.45A2.43,2.43,0,0,1,516.92,379.78Z"/><path class="cls-1" d="M306,288.85a4,4,0,0,1-5.56.86l0,0-.31-.24a4,4,0,1,1,5.91-.58Z"/><path class="cls-1" d="M247.86,246.44a4,4,0,0,1-5.18,1.11l-.34-.22,0,0a4,4,0,1,1,5.56-.86Z"/><path class="cls-1" d="M231.39,316.28l-66.15,90.2-1.88-1.37c16.74-49.13,6-84.85,6-84.85l36.28-22.86Z"/><path class="cls-1" d="M273.13,326.81a8.32,8.32,0,0,1-11.66,1.8L217,296a8.34,8.34,0,1,1,9.86-13.45l22.11,16.22.31.23,22.09,16.2A8.33,8.33,0,0,1,273.13,326.81Z"/><polygon class="cls-1" points="168.67 418.6 162.96 421.3 158.27 423.51 157.97 423.65 157.36 423.94 157.26 423.99 157.28 423.84 157.4 422.89 157.46 422.41 158.07 417.73 158.88 411.47 163.77 415.04 168.67 418.6"/><path class="cls-1" d="M263.43,339.78l-10.9,41.48s-37.3.49-79.12,31.21l-1.88-1.38,66.15-90.2Z"/><path class="cls-1" d="M253.91,292.23l-.23.32-.15-.1c-14.78-11-19.36-30.42-11.19-45.12a32.23,32.23,0,0,1,2.15-3.35l.32.23a29.43,29.43,0,0,0-2.13,3.34c-8.06,14.51-3.54,33.74,11.08,44.57Z"/><path class="cls-1" d="M302.79,286.73a32.81,32.81,0,0,1-2.55,3.06c-11.57,12.19-31.49,13.7-46.39,2.89a1.67,1.67,0,0,1-.16-.12l.24-.32.16.12c14.71,10.68,34.4,9.22,45.84-2.82a31.21,31.21,0,0,0,2.54-3Z"/><path class="cls-1" d="M311.17,244.75a1.5,1.5,0,0,0,.32,2.1l6.56,4.81L313.43,258l-6.54-4.81a1.51,1.51,0,0,0-2.11.32l-2.84,3.87a1.5,1.5,0,0,0,.33,2.1l6.56,4.8-4.61,6.3-6.56-4.82a1.51,1.51,0,0,0-2.1.32l-2.84,3.87a1.51,1.51,0,0,0,.33,2.11l6.56,4.81L296,281.67a25.68,25.68,0,0,1-35.82,5.51l-3.4-2.49a25.7,25.7,0,0,1-5.51-35.82l3.56-4.86,6.59,4.83a1.48,1.48,0,0,0,2.1-.32l2.84-3.87a1.5,1.5,0,0,0-.32-2.09l-6.59-4.83,4.61-6.29,6.59,4.83a1.51,1.51,0,0,0,2.1-.32l2.83-3.87a1.5,1.5,0,0,0-.32-2.1l-6.59-4.84,4.62-6.29,6.59,4.84a1.48,1.48,0,0,0,2.09-.33l2.84-3.85a1.52,1.52,0,0,0-.32-2.11l-6.6-4.83a25.7,25.7,0,0,1,35.8-5.5l3.41,2.5a25.69,25.69,0,0,1,5.52,35.8l-6.56-4.81a1.5,1.5,0,0,0-2.1.32Z"/><path class="cls-1" d="M321.64,328V315.68h-39.1v65.48h12.91V355.91H320.9V343.56H295.45V328Z"/><path class="cls-1" d="M330.63,315.68v65.48h12.91V315.68Z"/><path class="cls-1" d="M381.65,315.68v45.09a8.76,8.76,0,0,1-2.53,6.64q-2.52,2.43-7.67,2.43c-4.92,0-8.42-2-10.47-6.17L349.85,370q6.16,12.44,21.6,12.44,10.11,0,16.56-5.7t6.45-16V315.68Z"/><path class="cls-1" d="M436.15,315.68h-16l-22.91,65.48h13.93l3.93-11.78H442l4.16,11.78h13.09Zm-16.84,41.63,9-26.75,9.45,26.75Z"/></svg>